# xmcd
#
# Track frame offsets:
#	150
#	16133
#	27229
#	38764
#	57415
#	68893
#	87773
#	107321
#	127341
#	146421
#	155697
#	175418
#	193526
#	207943
#	220054
#	239179
#	255195
#	273979
#	294131
#	311759
#	329011
#
# Disc length: 4581 seconds
#
# Revision: 0
# Processed by: cddbd v1.5.1PL2 Copyright (c) Steve Scherf et al.
# Submitted via: audiograbber 1.83.01
#
DISCID=3411e315
DTITLE=Various Artist - Country Legends [CD1]
DYEAR=2002
DGENRE=Country
TTITLE0=Willie Nelson - Always on my mind
TTITLE1=Roy Orbison - Blue Bayou
TTITLE2=Bobby Gentry and Glen Campbell - All I have to do is dream
TTITLE3=LeAnn Rimes - How do I live
TTITLE4=Eva Cassidy - Tennessee Waltz
TTITLE5=Nanci Griffith - From a distance
TTITLE6=Alison Krauss and Union Station - When you say nothing at all
TTITLE7=Lonestar - Amazed
TTITLE8=The Soggy Bottom Boys with Dan Tyminski - I am a man of constant sorrow
TTITLE9=Johnnie Allan - The promised land
TTITLE10=The Mavericks - Dance the night away
TTITLE11=Billy Swan - I can help
TTITLE12=Bellamy Brothers - If I said you have a beautiful body
TTITLE13=Glen Campbell - Galveston
TTITLE14=Bobbie Gentry - Ode to Billy Joe
TTITLE15=Joe South - Games people play
TTITLE16=Juice Newton - Angel of the morning
TTITLE17=Tim McGraw - Please remember me
TTITLE18=The Judds - Love can build a bridge
TTITLE19=Don McLean - Crying
TTITLE20=Dr. Hook - A little bit more
EXTD=
EXTT0=
EXTT1=
EXTT2=
EXTT3=
EXTT4=
EXTT5=
EXTT6=
EXTT7=
EXTT8=
EXTT9=
EXTT10=
EXTT11=
EXTT12=
EXTT13=
EXTT14=
EXTT15=
EXTT16=
EXTT17=
EXTT18=
EXTT19=
EXTT20=
PLAYORDER=
